<?xml version="1.0" standalone="no"?>
<!DOCTYPE svg PUBLIC "-//W3C//DTD SVG 20010904//EN"
 "http://www.w3.org/TR/2001/REC-SVG-20010904/DTD/svg10.dtd">
<svg version="1.0" xmlns="http://www.w3.org/2000/svg"
 width="576.000000pt" height="576.000000pt" viewBox="0 0 576.000000 576.000000"
 preserveAspectRatio="xMidYMid meet">
<metadata>
Created by potrace 1.11, written by Peter Selinger 2001-2013
</metadata>
<g transform="translate(0.000000,576.000000) scale(0.100000,-0.100000)"
fill="#000000" stroke="none">
<path d="M3520 5105 c-238 -53 -430 -197 -543 -405 -28 -52 -64 -151 -82 -225
-2 -6 -50 -16 -109 -23 -323 -36 -675 -142 -1001 -303 -885 -435 -1521 -1257
-1719 -2220 -39 -189 -56 -336 -62 -539 -7 -214 3 -276 64 -400 53 -108 168
-223 279 -278 157 -77 38 -73 1810 -70 1580 3 1582 3 1609 24 45 33 67 70 72
122 11 115 -62 240 -173 297 l-59 30 -438 5 -438 5 186 250 c102 138 198 278
215 312 97 202 92 432 -13 643 -34 68 -60 103 -133 176 -76 76 -105 98 -185
137 -159 78 -313 97 -480 57 -132 -32 -225 -84 -451 -253 -126 -94 -219 -157
-239 -161 -45 -9 -102 9 -138 42 -55 52 -66 149 -23 204 23 29 351 279 449
342 222 144 508 196 773 141 272 -57 502 -215 655 -450 111 -170 154 -307 163
-521 l6 -151 590 -627 590 -627 482 3 c471 3 482 3 510 24 50 37 73 81 73 140
0 114 -80 238 -185 286 -48 22 -63 23 -362 28 l-313 5 -381 405 c-209 223
-430 457 -490 521 l-108 116 775 434 c426 239 805 457 842 485 45 34 84 75
119 127 193 283 105 660 -194 836 -151 89 -505 243 -823 357 -133 47 -176 67
-178 81 -9 49 -48 155 -79 213 -102 190 -287 336 -498 395 -84 23 -282 29
-365 10z m266 -573 c84 -43 128 -117 128 -212 0 -137 -96 -234 -234 -234 -138
0 -234 97 -234 234 0 112 62 195 174 231 38 13 123 3 166 -19z"/>
</g>
</svg>
